<svg id="Capa_1" enable-background="new 0 0 512 512" height="512" viewBox="0 0 512 512" width="512" xmlns="http://www.w3.org/2000/svg"><g id="XMLID_128_"><path id="XMLID_69_" d="m486.202 51.202h-460.404c-14.225 0-25.798 11.572-25.798 25.797v358.001c0 14.225 11.573 25.798 25.798 25.798h460.405c14.224 0 25.797-11.573 25.797-25.798v-358.001c0-14.225-11.573-25.797-25.798-25.797zm-180.633 51.368c0-8.231 6.672-14.903 14.903-14.903h43.457c8.231 0 14.903 6.672 14.903 14.903s-6.672 14.903-14.903 14.903h-28.554v45.634h13.278c8.231 0 14.903 6.672 14.903 14.903s-6.672 14.903-14.903 14.903h-13.278v45.634h28.554c8.231 0 14.903 6.672 14.903 14.903s-6.672 14.903-14.903 14.903h-43.457c-8.231 0-14.903-6.672-14.903-14.903zm-87.483-14.903h65.781c8.231 0 14.903 6.672 14.903 14.903s-6.672 14.903-14.903 14.903h-17.988v135.977c0 8.231-6.672 14.903-14.903 14.903s-14.903-6.672-14.903-14.903v-135.977h-17.987c-8.231 0-14.903-6.672-14.903-14.903s6.673-14.903 14.903-14.903zm-154.068 75.44c8.231 0 14.903 6.672 14.903 14.903s-6.672 14.903-14.903 14.903h-13.277v45.634h28.553c8.23 0 14.903 6.672 14.903 14.903s-6.672 14.903-14.903 14.903h-43.456c-8.231 0-14.903-6.672-14.903-14.903v-150.88c0-8.231 6.672-14.903 14.903-14.903h43.456c8.231 0 14.903 6.672 14.903 14.903 0 8.23-6.672 14.903-14.903 14.903h-28.553v45.634zm43.018 90.343v-150.88c0-7.147 5.073-13.286 12.091-14.635 7.013-1.349 14.005 2.475 16.653 9.112l31.456 78.838v-73.315c0-8.231 6.672-14.903 14.903-14.903s14.903 6.672 14.903 14.903v150.88c0 7.147-5.073 13.286-12.091 14.635-.943.181-1.887.269-2.82.27-5.999 0-11.542-3.637-13.834-9.382l-31.456-78.837v73.314c0 8.231-6.672 14.903-14.903 14.903s-14.902-6.673-14.902-14.903zm286.737 128.648-67.958 62.345c-2.804 2.572-6.416 3.921-10.078 3.921-2.026 0-4.067-.412-5.995-1.26-5.411-2.379-8.905-7.732-8.905-13.643v-18.384h-172.537c-8.231 0-14.903-6.672-14.903-14.903v-64.622c0-8.231 6.672-14.903 14.903-14.903h172.538v-11.879c0-5.911 3.494-11.264 8.905-13.643 5.41-2.379 11.716-1.335 16.073 2.66l67.959 62.346c3.077 2.823 4.828 6.807 4.828 10.982-.001 4.176-1.752 8.16-4.83 10.983zm97.292-204.088c0 8.231-6.672 14.903-14.903 14.903h-12.946l18.546 55.84c2.594 7.81-1.635 16.246-9.446 18.84-1.558.518-3.143.764-4.699.764-6.246 0-12.065-3.957-14.141-10.21l-21.665-65.234h-6.526v60.537c0 8.231-6.672 14.903-14.903 14.903s-14.903-6.672-14.903-14.903v-150.88c0-8.231 6.672-14.903 14.903-14.903h65.781c8.231 0 14.903 6.672 14.903 14.903v75.44z"/><path id="XMLID_68_" d="m315.74 350.454h-172.538v34.816h172.538c8.03 0 14.577 6.352 14.891 14.305l31.023-28.46-32.257-29.592c-2.301 5.258-7.55 8.931-13.657 8.931z"/><path id="XMLID_67_" d="m425.284 117.473h35.975v45.634h-35.975z"/></g></svg>