<svg xmlns="http://www.w3.org/2000/svg" width="180" height="50" viewBox="0 0 180 50">
    <g fill="none" fill-rule="evenodd" transform="translate(1 1)">
        <circle cx="22.8" cy="22.8" r="22.8" fill="#000"></circle>
        <path fill="#FFF" d="M27.035 23.2c2.992.42 5.362 3.055 5.152 6.165-.317 4.709-4.188 8.299-8.787 8.234v-6.014c2.49-.18 4.547-2.204 4.723-4.812.09-1.341-.326-2.597-1.088-3.573zM23.795 8l.286.007c3.324.118 6.24 1.753 8.119 4.224l-4.371 4.096c-.743-1.255-2.033-2.148-3.551-2.33-2.968-.357-5.55 2.11-5.362 5.121.153 2.458 2.132 4.443 4.62 4.532.9.032 1.75-.189 2.486-.598.038.05.075.101.11.153.408.695.66 1.487.716 2.32.007.099.001.298 0 .299-.114 2.218-1.56 3.473-3.383 3.765-.105.017-.373.01-.417.007-5.922-.366-10.516-5.62-10.01-11.701.475-5.708 5.312-10.092 11.043-9.888z"></path>
        <path fill="#000" fill-rule="nonzero" d="M65.64 32.92c6.304 0 10.592-3.648 10.592-11.68h-10.56v3.264h6.304c0 .192-.064.352-.096.512-.544 2.72-3.008 4.352-6.24 4.352-4.128 0-7.296-3.552-7.296-7.744 0-4.256 3.168-7.712 7.296-7.712 1.984 0 3.776.832 5.088 2.144l2.816-2.464c-1.92-2.016-4.736-3.296-7.904-3.296-6.304 0-11.232 5.056-11.232 11.328 0 6.208 4.928 11.296 11.232 11.296zm16.845-.32V9.656h-3.712V32.6h3.712zm9.612.352c1.504 0 3.872-.832 4.64-2.688V32.6h3.712V17.656h-3.712v7.808c0 2.912-2.112 3.84-3.808 3.84-1.664 0-3.104-1.216-3.104-3.616v-8.032h-3.712v8.384c0 4.352 2.144 6.912 5.984 6.912zm19.373-.064c2.592 0 4.704-1.152 6.08-2.88l-2.656-2.08c-.768.928-2.048 1.504-3.36 1.504-2.592 0-4.448-1.824-4.448-4.32 0-2.528 1.856-4.32 4.448-4.32 1.312 0 2.592.576 3.36 1.504l2.656-2.08c-1.376-1.76-3.488-2.88-6.08-2.88-4.32 0-8.128 3.04-8.128 7.776s3.808 7.776 8.128 7.776zm15.373.032c4.256 0 7.968-3.104 7.968-7.84s-3.712-7.744-7.968-7.744-7.936 3.008-7.936 7.744 3.68 7.84 7.936 7.84zm0-3.456c-2.304 0-4.192-1.76-4.192-4.384 0-2.56 1.888-4.288 4.192-4.288 2.304 0 4.224 1.728 4.224 4.288 0 2.624-1.92 4.384-4.224 4.384zm17.325 3.456c1.824 0 3.936-.736 4.96-2.336V32.6h3.712V9.656h-3.712v9.984c-1.024-1.568-3.104-2.304-4.992-2.304-3.936 0-7.328 2.976-7.328 7.776 0 4.768 3.424 7.808 7.36 7.808zm.576-3.488c-2.304 0-4.192-1.856-4.192-4.352 0-2.496 1.888-4.288 4.192-4.288 2.144 0 4.32 1.664 4.32 4.288 0 2.624-2.048 4.352-4.32 4.352zm18.86 3.488c2.72 0 5.344-1.152 6.72-3.328l-2.464-1.888c-.896 1.216-2.432 1.856-4.064 1.856-2.208 0-3.808-1.056-4.224-3.136h11.552c.064-.544.096-1.024.096-1.44 0-4.672-3.36-7.648-7.648-7.648-4.256 0-7.84 3.008-7.84 7.776 0 4.672 3.392 7.808 7.872 7.808zm3.904-9.088h-7.936c.448-2.272 2.048-3.232 4.064-3.232 2.08 0 3.648 1.184 3.872 3.232z"></path>
    </g>
</svg>